# xmcd
#
# Track frame offsets:
#	182
#	16452
#	30850
#	41777
#	56355
#	70302
#	83402
#	103430
#	119622
#	132735
#	149217
#	163025
#	175890
#	190062
#	201557
#	220347
#
# Disc length: 3154 seconds
#
# Revision: 1
# Processed by: cddbd v1.4PL0 Copyright (c) Steve Scherf et al.
# Submitted via: audiograbber 1.82.02
#
DISCID=f80c5010
DTITLE=Angelo - Angelo - Tenkrát na západì
DYEAR=1900
DGENRE=Country
TTITLE0=Tenkrat na zapade
TTITLE1=Poklad na stribrnem jezere
TTITLE2=Sedm statecnych
TTITLE3=V prave poledne
TTITLE4=Raindrops keep fallin` on my head
TTITLE5=Velka zeme
TTITLE6=Jak jsme se dostali na zapad
TTITLE7=Par dolaru navic
TTITLE8=Harmonika
TTITLE9=Mackenovo zlato
TTITLE10=Hodny, zly a osklivy
TTITLE11=Bezi dal
TTITLE12=Zelene listy leta
TTITLE13=Na sever od Aljasky
TTITLE14=So far
TTITLE15=Vinnetou
EXTD=
EXTT0=
EXTT1=
EXTT2=
EXTT3=
EXTT4=
EXTT5=
EXTT6=
EXTT7=
EXTT8=
EXTT9=
EXTT10=
EXTT11=
EXTT12=
EXTT13=
EXTT14=
EXTT15=
PLAYORDER=
